# xmcd
#
# Track frame offsets: 
#        150
#        13110
#        23654
#        35785
#        48849
#        62880
#        76102
#        89309
#        101977
#        112246
#        123343
#        136981
#        151212
#        166149
#        178710
#        192200
#        203615
#        216892
#        229703
#        243482
#        256184
#        270223
#        281859
#        294786
#        308630
#
# Disc length: 4300 seconds
#
# Revision: 3
# Processed by: cddbd v1.5.2PL0 Copyright (c) Steve Scherf et al.
# Submitted via: ExactAudioCopy v1.1
#
DISCID=5610ca19
DTITLE=Muddy Waters - Anthology [disc 3]
DYEAR=2011
DGENRE=Blues
TTITLE0=Got My Mojo Working
TTITLE1=Evil
TTITLE2=Howlin' Wolf
TTITLE3=Louisiana Blues
TTITLE4=Rollin' Stone
TTITLE5=I Feel So Good
TTITLE6=Oh Yeh
TTITLE7=Baby Please Don't Go
TTITLE8=Mean Red Spider
TTITLE9=Muddy Jumps One
TTITLE10=Sad Letter Blues
TTITLE11=All Night Long
TTITLE12=She's Nineteen Years Old
TTITLE13=Double Trouble
TTITLE14=I Done Got Wise
TTITLE15=Little Anna Mae
TTITLE16=Don't Go No Further
TTITLE17=I Love the Life I Live (I Live the Life I Love)
TTITLE18=Clouds in My Heart
TTITLE19=Stuff You Gotta Watch
TTITLE20=Close to You
TTITLE21=Mean Disposition
TTITLE22=Jitterbug Blues
TTITLE23=This Pain
TTITLE24=Screamin' and Cryin'
EXTD=
EXTT0=
EXTT1=
EXTT2=
EXTT3=
EXTT4=
EXTT5=
EXTT6=
EXTT7=
EXTT8=
EXTT9=
EXTT10=
EXTT11=
EXTT12=
EXTT13=
EXTT14=
EXTT15=
EXTT16=
EXTT17=
EXTT18=
EXTT19=
EXTT20=
EXTT21=
EXTT22=
EXTT23=
EXTT24=
PLAYORDER=
